<svg width="20" height="20" viewBox="0 0 20 20" fill="none" xmlns="http://www.w3.org/2000/svg">
<path fill-rule="evenodd" clip-rule="evenodd" d="M8.15626 2.21536C7.36039 2.40386 6.59453 2.71414 5.88675 3.13843C4.64461 3.88304 3.6279 4.95087 2.94507 6.22801C2.26223 7.50515 1.93889 8.9437 2.00952 10.3902C2.08016 11.8367 2.54213 13.2369 3.34615 14.4414C4.15017 15.646 5.26609 16.6096 6.57486 17.2297C7.88364 17.8497 9.33618 18.1029 10.7775 17.9621C12.2189 17.8214 13.595 17.292 14.7591 16.4305C15.3281 16.0094 15.836 15.5167 16.2714 14.9668C15.1444 15.07 13.9996 14.9479 12.9057 14.5979C11.0127 13.9922 9.39191 12.7424 8.3249 11.0656C7.25789 9.38883 6.81218 7.39118 7.06526 5.41989C7.21147 4.28096 7.5856 3.19245 8.15626 2.21536ZM10.1244 0.00799993H10.3908C10.802 0.00799993 11.1712 0.259652 11.3216 0.642325C11.4719 1.025 11.3727 1.4607 11.0715 1.74056C9.95815 2.77511 9.24251 4.1671 9.04898 5.67456C8.85545 7.18202 9.19628 8.70963 10.0122 9.99186C10.8282 11.2741 12.0676 12.2299 13.5152 12.693C14.9627 13.1562 16.5268 13.0975 17.9355 12.5271C18.3093 12.3758 18.7374 12.4637 19.0212 12.7501C19.305 13.0366 19.389 13.4654 19.2343 13.8378C18.5395 15.5094 17.404 16.9611 15.9489 18.0381C14.4938 19.115 12.7736 19.7767 10.9719 19.9527C9.17022 20.1286 7.35454 19.8122 5.71858 19.0371C4.08261 18.2621 2.68771 17.0574 1.68269 15.5518C0.677659 14.0461 0.100199 12.2959 0.011904 10.4877C-0.0763913 8.67962 0.32779 6.88144 1.18133 5.28502C2.03488 3.68859 3.30577 2.3538 4.85843 1.42304C6.4111 0.49227 8.18731 0.000436693 9.99759 2.91019e-08C10.0401 -1.02229e-05 10.0826 0.00268826 10.1244 0.00799993Z" fill="#212529"/>
<path fill-rule="evenodd" clip-rule="evenodd" d="M8.15626 2.21536C7.36039 2.40386 6.59453 2.71414 5.88675 3.13843C4.64461 3.88304 3.6279 4.95087 2.94507 6.22801C2.26223 7.50515 1.93889 8.9437 2.00952 10.3902C2.08016 11.8367 2.54213 13.2369 3.34615 14.4414C4.15017 15.646 5.26609 16.6096 6.57486 17.2297C7.88364 17.8497 9.33618 18.1029 10.7775 17.9621C12.2189 17.8214 13.595 17.292 14.7591 16.4305C15.3281 16.0094 15.836 15.5167 16.2714 14.9668C15.1444 15.07 13.9996 14.9479 12.9057 14.5979C11.0127 13.9922 9.39191 12.7424 8.3249 11.0656C7.25789 9.38883 6.81218 7.39118 7.06526 5.41989C7.21147 4.28096 7.5856 3.19245 8.15626 2.21536ZM10.1244 0.00799993H10.3908C10.802 0.00799993 11.1712 0.259652 11.3216 0.642325C11.4719 1.025 11.3727 1.4607 11.0715 1.74056C9.95815 2.77511 9.24251 4.1671 9.04898 5.67456C8.85545 7.18202 9.19628 8.70963 10.0122 9.99186C10.8282 11.2741 12.0676 12.2299 13.5152 12.693C14.9627 13.1562 16.5268 13.0975 17.9355 12.5271C18.3093 12.3758 18.7374 12.4637 19.0212 12.7501C19.305 13.0366 19.389 13.4654 19.2343 13.8378C18.5395 15.5094 17.404 16.9611 15.9489 18.0381C14.4938 19.115 12.7736 19.7767 10.9719 19.9527C9.17022 20.1286 7.35454 19.8122 5.71858 19.0371C4.08261 18.2621 2.68771 17.0574 1.68269 15.5518C0.677659 14.0461 0.100199 12.2959 0.011904 10.4877C-0.0763913 8.67962 0.32779 6.88144 1.18133 5.28502C2.03488 3.68859 3.30577 2.3538 4.85843 1.42304C6.4111 0.49227 8.18731 0.000436693 9.99759 2.91019e-08C10.0401 -1.02229e-05 10.0826 0.00268826 10.1244 0.00799993Z" fill="black" fill-opacity="0.2"/>
</svg>
